<svg preserveAspectRatio="none" overflow="visible" style="display: block;" width="4.08739" height="1.19792" viewBox="0 0 4.08739 1.19792" fill="none" xmlns="http://www.w3.org/2000/svg">
<g id="Group">
<path id="Vector" d="M1.68118 0.382156C1.7774 0.475094 1.91055 0.528711 2.044 0.528414C2.17775 0.528414 2.3106 0.474496 2.40681 0.381856C2.55724 0.236491 2.82891 0.325553 3.03594 0.355639C3.24296 0.385725 3.45505 0.427431 3.6594 0.383047C3.80565 0.351472 3.9391 0.264193 4.02102 0.139084" stroke="#6714FF" stroke-width="0.132735" stroke-miterlimit="10" stroke-linecap="round" stroke-linejoin="round"/>
<path id="Vector_2" d="M1.68119 0.381244C1.53076 0.23588 1.25909 0.324941 1.05207 0.355027C0.845041 0.385113 0.633248 0.426819 0.428606 0.382435C0.264773 0.346988 0.114641 0.226941 0.0663848 0.0663848" stroke="#6714FF" stroke-width="0.132735" stroke-miterlimit="10" stroke-linecap="round" stroke-linejoin="round"/>
<path id="Vector_3" d="M1.08483 0.972418C1.61655 1.1571 2.20247 1.18183 2.74759 1.04242" stroke="#6714FF" stroke-width="0.132735" stroke-miterlimit="10" stroke-linecap="round" stroke-linejoin="round"/>
</g>
</svg>
