<svg preserveAspectRatio="none" overflow="visible" style="display: block;" width="12.6909" height="19.0426" viewBox="0 0 12.6909 19.0426" fill="none" xmlns="http://www.w3.org/2000/svg">
<g id="Group">
<path id="Vector" d="M12.6159 11.2855C12.6159 12.8257 11.9865 14.3004 10.8719 15.3641L9.17275 16.8893C8.65735 17.4526 7.92916 17.7734 7.16505 17.7734H5.58264C4.82452 17.7734 4.1053 17.4589 3.58691 16.9073L1.85186 15.3671C0.71602 14.3004 0.0749149 12.8137 0.0749149 11.2586L0.10186 10.7881L0.257794 8.09108L0.374517 6.09235C0.374517 2.76892 3.04757 0.0749149 6.34407 0.0749149C7.99531 0.0749149 9.48762 0.749239 10.5666 1.8369C11.6486 2.92485 12.3166 4.42914 12.3166 6.09235L12.4483 8.36703L12.5773 10.6115L12.6159 11.2855Z" fill="#F5F5FF" stroke="#D46400" stroke-width="0.14983" stroke-miterlimit="10" stroke-linecap="round" stroke-linejoin="round"/>
<path id="Vector_2" d="M12.4481 8.36673H12.2623C11.3871 7.08423 10.8238 5.58863 10.638 4.04843C10.5212 3.08648 9.15463 2.76293 8.18969 2.86769C7.7551 3.52405 6.99099 3.95265 6.20293 3.9766C5.41487 4.00054 4.64179 3.47317 4.16829 2.84075C3.20634 2.73599 1.83375 3.05954 1.71702 4.02149C1.54313 5.46292 1.0397 6.86544 0.257632 8.09108L0.374355 6.09235C0.374355 2.76892 3.04741 0.0749149 6.3439 0.0749149C7.99514 0.0749149 9.48746 0.749239 10.5664 1.8369C11.6484 2.92485 12.3164 4.42914 12.3164 6.09235L12.4481 8.36673Z" fill="#D46400"/>
<path id="Vector_3" d="M12.6159 11.2857L12.577 10.6114C12.1095 11.2289 11.5372 11.984 11.1326 12.4306C10.5483 13.072 9.54419 13.1411 8.54333 13.1172C8.28264 13.1112 7.93815 12.9915 7.59036 12.8325C6.72119 12.4369 5.64251 12.4369 4.77035 12.8325C4.42586 12.9915 4.07508 13.1112 3.81439 13.1172C2.81353 13.1411 1.80967 13.0717 1.22812 12.4306C0.874351 12.0409 0.455036 11.3908 0.101263 10.7883L0.0743274 11.2588C0.0743274 11.5243 0.0997681 11.7862 0.136283 12.0457C0.12461 12.0262 0.112637 12.0065 0.101263 11.987L0.0743274 12.4575C0.0743274 14.0127 0.715723 15.4993 1.85127 16.566L3.58632 18.1062C4.10471 18.6575 4.82393 18.9724 5.58206 18.9724H7.16445C7.92857 18.9724 8.65677 18.6518 9.17216 18.0882L10.8713 16.563C11.9862 15.4993 12.6153 14.0246 12.6153 12.4844L12.5812 11.8921C12.6033 11.6916 12.6159 11.4893 12.6159 11.2857Z" fill="#D46400"/>
<g id="Group_2">
<path id="Vector_4" d="M5.28902 18.9558C5.63321 18.9582 5.97741 18.9246 6.3222 18.9193C6.6643 18.9016 7.01658 18.9073 7.3503 18.8902C8.01953 18.8357 8.65943 18.535 9.13263 18.051L9.13562 18.0477L9.13623 18.0471C9.41248 17.813 9.69322 17.5841 9.98025 17.3623C9.72883 17.6239 9.47084 17.8783 9.20865 18.1276L9.21225 18.124C8.75522 18.6571 8.06892 19.0052 7.36017 19.0378C7.0058 19.0506 6.66849 19.0348 6.3216 19.0237C5.978 19.0093 5.63232 19.0078 5.28902 18.9558Z" fill="#F5F5FF"/>
</g>
<path id="Vector_5" d="M9.13379 14.3232C8.35172 15.1205 7.29968 15.5671 6.25093 15.5329C5.29795 15.5024 4.36594 15.0729 3.64672 14.3642H3.81463C4.07532 14.3573 4.4258 14.2211 4.77059 14.0403C5.64275 13.5905 6.72143 13.5905 7.5906 14.0403C7.93809 14.2211 8.28288 14.3573 8.54357 14.3642C8.74141 14.3707 8.93925 14.3573 9.13379 14.3232Z" fill="#F5F5FF"/>
<path id="Vector_6" d="M6.25076 15.1611C6.58208 15.2991 6.75418 15.4374 6.8781 15.5754C6.99572 15.7134 7.05139 15.8516 7.05139 15.9896C7.05319 16.1276 6.99811 16.2659 6.88049 16.4038C6.75688 16.5418 6.58448 16.6801 6.25106 16.8181C5.91764 16.6801 5.74494 16.5418 5.62163 16.4038C5.50401 16.2659 5.44893 16.1276 5.45073 15.9896C5.45043 15.8516 5.5064 15.7134 5.62372 15.5754C5.74763 15.4374 5.91943 15.2991 6.25076 15.1611Z" fill="#D46400"/>
</g>
</svg>
