<svg preserveAspectRatio="none" overflow="visible" style="display: block;" width="24" height="24" viewBox="0 0 24 24" fill="none" xmlns="http://www.w3.org/2000/svg">
<g id="ScanSmiley" clip-path="url(#clip0_0_4)">
<g id="Vector">
</g>
<path id="Vector_2" d="M16.875 3.75H20.25V7.125" stroke="#6714FF" stroke-width="1.5" stroke-linecap="round" stroke-linejoin="round"/>
<path id="Vector_3" d="M16.875 20.25H20.25V16.875" stroke="#6714FF" stroke-width="1.5" stroke-linecap="round" stroke-linejoin="round"/>
<path id="Vector_4" d="M7.125 20.25H3.75V16.875" stroke="#6714FF" stroke-width="1.5" stroke-linecap="round" stroke-linejoin="round"/>
<path id="Vector_5" d="M7.125 3.75H3.75V7.125" stroke="#6714FF" stroke-width="1.5" stroke-linecap="round" stroke-linejoin="round"/>
<path id="Vector_6" d="M12 18C15.3137 18 18 15.3137 18 12C18 8.68629 15.3137 6 12 6C8.68629 6 6 8.68629 6 12C6 15.3137 8.68629 18 12 18Z" stroke="#6714FF" stroke-width="1.5" stroke-linecap="round" stroke-linejoin="round"/>
<path id="Vector_7" d="M9.75 11.8125C10.2678 11.8125 10.6875 11.3928 10.6875 10.875C10.6875 10.3572 10.2678 9.9375 9.75 9.9375C9.23223 9.9375 8.8125 10.3572 8.8125 10.875C8.8125 11.3928 9.23223 11.8125 9.75 11.8125Z" fill="#6714FF"/>
<path id="Vector_8" d="M14.25 11.8125C14.7678 11.8125 15.1875 11.3928 15.1875 10.875C15.1875 10.3572 14.7678 9.9375 14.25 9.9375C13.7322 9.9375 13.3125 10.3572 13.3125 10.875C13.3125 11.3928 13.7322 11.8125 14.25 11.8125Z" fill="#6714FF"/>
<path id="Vector_9" d="M14.25 14.25C13.7213 14.7188 12.7612 15 12 15C11.2388 15 10.2787 14.7188 9.75 14.25" stroke="#6714FF" stroke-width="1.5" stroke-linecap="round" stroke-linejoin="round"/>
</g>
<defs>
<clipPath id="clip0_0_4">
<rect width="24" height="24" fill="white"/>
</clipPath>
</defs>
</svg>
